<svg width="18" height="18" viewBox="0 0 18 18" fill="none" xmlns="http://www.w3.org/2000/svg">
<path d="M8.99996 0.666656C4.48246 0.666656 0.666626 4.48249 0.666626 8.99999C0.666626 13.5175 4.48246 17.3333 8.99996 17.3333C13.5175 17.3333 17.3333 13.5175 17.3333 8.99999C17.3333 4.48249 13.5175 0.666656 8.99996 0.666656ZM8.99996 4.83332C10.4391 4.83332 11.5 5.89332 11.5 7.33332C11.5 8.77332 10.4391 9.83332 8.99996 9.83332C7.56163 9.83332 6.49996 8.77332 6.49996 7.33332C6.49996 5.89332 7.56163 4.83332 8.99996 4.83332ZM4.74496 12.9767C5.49246 11.8767 6.73913 11.1433 8.16663 11.1433H9.83329C11.2616 11.1433 12.5075 11.8767 13.255 12.9767C12.19 14.1167 10.6791 14.8333 8.99996 14.8333C7.32079 14.8333 5.80996 14.1167 4.74496 12.9767Z" fill="#707173"/>
</svg>
